# xmcd
#
# Track frame offsets:
# 150
# 2470
# 24660
# 41115
# 73304
# 95073
# 127519
# 141102
# 165764
# 192352
#
# Disc length: 2571 seconds
#
#
# Revision: 0
# Processed by: cddbd v1.5.2PL0 Copyright (c) Steve Scherf et al.
# Submitted via: FreeRIP 2.90 
#
DISCID=7c0a090a
DTITLE=Tom Waits - Neil Young's Bridge Event '99
DYEAR=1999
DGENRE=Avantgarde
TTITLE0=Intro
TTITLE1=Gun Street Girl
TTITLE2=Jockey Full of Bourbon
TTITLE3=Hold On
TTITLE4=Chocolate Jesus
TTITLE5=16 Shells From A 30.6
TTITLE6=Tango Till They're Sore
TTITLE7=Innocent When You Dream
TTITLE8=Tom Traubert's Blues
TTITLE9=Outro
EXTD=
EXTT0=
EXTT1=
EXTT2=
EXTT3=
EXTT4=
EXTT5=
EXTT6=
EXTT7=
EXTT8=
EXTT9=
PLAYORDER=
